<?xml version="1.0" encoding="UTF-8" standalone="no"?>
<!DOCTYPE svg PUBLIC "-//W3C//DTD SVG 1.1//EN" "http://www.w3.org/Graphics/SVG/1.1/DTD/svg11.dtd">
<svg width="100%" height="100%" viewBox="0 0 480 146" version="1.1" xmlns="http://www.w3.org/2000/svg" xmlns:xlink="http://www.w3.org/1999/xlink" xml:space="preserve" xmlns:serif="http://www.serif.com/" style="fill-rule:evenodd;clip-rule:evenodd;stroke-linejoin:round;stroke-miterlimit:2;">
    <g transform="matrix(4.16667,0,0,4.16667,0,0)">
        <path d="M41.95,10.667L41.95,5.376L45.099,10.667L46.738,10.667L46.738,2.967L45.174,2.967L45.174,8.257L42.047,2.967L40.387,2.967L40.387,10.667L41.95,10.667Z" style="fill:#fafafa;fill-rule:nonzero;"/>
        <path d="M51.431,8.407C51.431,8.611 51.398,8.782 51.334,8.943C51.281,9.103 51.184,9.243 51.077,9.36C50.959,9.467 50.82,9.553 50.659,9.617C50.499,9.671 50.306,9.703 50.103,9.703C49.878,9.703 49.696,9.639 49.556,9.521C49.417,9.392 49.353,9.232 49.353,9.018C49.353,8.921 49.364,8.825 49.385,8.75C49.417,8.675 49.449,8.6 49.514,8.546C49.567,8.482 49.642,8.429 49.738,8.386C49.824,8.332 49.942,8.289 50.07,8.257C50.081,8.257 50.252,8.214 50.574,8.15C50.895,8.075 51.174,7.99 51.431,7.872L51.431,8.407ZM51.623,10.667L53.208,10.667L53.208,10.41C53.091,10.356 53.005,10.26 52.962,10.142C52.909,10.035 52.887,9.853 52.887,9.617L52.887,6.383C52.887,5.858 52.673,5.462 52.255,5.194C51.838,4.916 51.227,4.777 50.424,4.777C49.696,4.777 49.128,4.948 48.721,5.28C48.303,5.612 48.1,6.062 48.1,6.651L48.1,6.758L49.524,6.758L49.524,6.672C49.524,6.437 49.61,6.265 49.771,6.147C49.931,6.03 50.167,5.965 50.477,5.965C50.809,5.965 51.045,6.019 51.195,6.115C51.334,6.212 51.409,6.383 51.409,6.608C51.409,6.897 51.088,7.09 50.435,7.165C50.306,7.186 50.199,7.197 50.092,7.208C49.995,7.229 49.899,7.24 49.824,7.251C49.128,7.358 48.635,7.55 48.346,7.829C48.046,8.118 47.896,8.525 47.896,9.06C47.896,9.639 48.046,10.089 48.346,10.399C48.635,10.71 49.064,10.87 49.621,10.87C50.028,10.87 50.392,10.795 50.702,10.635C51.013,10.485 51.259,10.26 51.452,9.96C51.463,10.239 51.516,10.474 51.623,10.667Z" style="fill:#fafafa;fill-rule:nonzero;"/>
        <path d="M56.743,9.564L56.368,9.564C56.164,9.564 56.025,9.542 55.961,9.5C55.897,9.446 55.865,9.35 55.865,9.2L55.865,6.051L56.743,6.051L56.743,4.98L55.865,4.98L55.865,3.427L54.354,3.427L54.354,4.98L53.605,4.98L53.605,6.051L54.354,6.051L54.354,9.125C54.354,9.767 54.462,10.196 54.676,10.421C54.89,10.635 55.286,10.742 55.875,10.742C55.918,10.742 56.047,10.731 56.239,10.721L56.743,10.71L56.743,9.564Z" style="fill:#fafafa;fill-rule:nonzero;"/>
        <path d="M59.172,10.667L59.172,4.98L57.652,4.98L57.652,10.667L59.172,10.667ZM59.172,4.348L59.172,2.967L57.652,2.967L57.652,4.348L59.172,4.348Z" style="fill:#fafafa;fill-rule:nonzero;"/>
        <path d="M61.015,10.046C61.529,10.592 62.235,10.86 63.124,10.86C64.024,10.86 64.72,10.592 65.234,10.046C65.748,9.51 66.005,8.771 66.005,7.818C66.005,6.865 65.748,6.126 65.234,5.591C64.72,5.044 64.024,4.777 63.124,4.777C62.235,4.777 61.529,5.044 61.015,5.591C60.501,6.126 60.243,6.876 60.243,7.818C60.243,8.771 60.501,9.51 61.015,10.046ZM62.128,6.512C62.364,6.212 62.696,6.062 63.124,6.062C63.553,6.062 63.885,6.212 64.11,6.512C64.345,6.822 64.452,7.251 64.452,7.818C64.452,8.386 64.335,8.825 64.11,9.125C63.874,9.435 63.553,9.585 63.124,9.585C62.696,9.585 62.364,9.435 62.128,9.125C61.903,8.825 61.786,8.386 61.786,7.818C61.786,7.251 61.903,6.822 62.128,6.512Z" style="fill:#fafafa;fill-rule:nonzero;"/>
        <path d="M68.564,10.667L68.564,7.293C68.564,7.111 68.596,6.94 68.649,6.79C68.703,6.651 68.778,6.522 68.874,6.415C68.981,6.319 69.099,6.233 69.249,6.18C69.388,6.126 69.549,6.094 69.731,6.094C70.042,6.094 70.267,6.18 70.406,6.362C70.545,6.533 70.609,6.822 70.609,7.229L70.609,10.667L72.13,10.667L72.13,6.79C72.13,5.483 71.509,4.83 70.256,4.83C69.892,4.83 69.57,4.905 69.281,5.034C68.992,5.173 68.746,5.387 68.532,5.655L68.532,4.98L67.043,4.98L67.043,10.667L68.564,10.667Z" style="fill:#fafafa;fill-rule:nonzero;"/>
        <path d="M76.673,8.407C76.673,8.611 76.641,8.782 76.577,8.943C76.523,9.103 76.427,9.243 76.32,9.36C76.202,9.467 76.063,9.553 75.902,9.617C75.742,9.671 75.549,9.703 75.345,9.703C75.12,9.703 74.938,9.639 74.799,9.521C74.66,9.393 74.596,9.232 74.596,9.018C74.596,8.921 74.606,8.825 74.628,8.75C74.66,8.675 74.692,8.6 74.756,8.546C74.81,8.482 74.885,8.429 74.981,8.386C75.067,8.332 75.185,8.289 75.313,8.257C75.324,8.257 75.495,8.214 75.816,8.15C76.138,8.075 76.416,7.99 76.673,7.872L76.673,8.407ZM76.866,10.667L78.451,10.667L78.451,10.41C78.333,10.356 78.248,10.26 78.205,10.142C78.151,10.035 78.13,9.853 78.13,9.617L78.13,6.383C78.13,5.858 77.916,5.462 77.498,5.194C77.08,4.916 76.47,4.777 75.667,4.777C74.938,4.777 74.371,4.948 73.964,5.28C73.546,5.612 73.343,6.062 73.343,6.651L73.343,6.758L74.767,6.758L74.767,6.672C74.767,6.437 74.853,6.265 75.013,6.147C75.174,6.03 75.41,5.965 75.72,5.965C76.052,5.965 76.288,6.019 76.438,6.115C76.577,6.212 76.652,6.383 76.652,6.608C76.652,6.897 76.331,7.09 75.677,7.165C75.549,7.186 75.442,7.197 75.335,7.208C75.238,7.229 75.142,7.24 75.067,7.251C74.371,7.358 73.878,7.55 73.589,7.829C73.289,8.118 73.139,8.525 73.139,9.06C73.139,9.639 73.289,10.089 73.589,10.399C73.878,10.71 74.306,10.87 74.863,10.87C75.27,10.87 75.634,10.795 75.945,10.635C76.256,10.485 76.502,10.26 76.695,9.96C76.705,10.239 76.759,10.474 76.866,10.667Z" style="fill:#fafafa;fill-rule:nonzero;"/>
        <rect x="79.511" y="2.967" width="1.521" height="7.7" style="fill:#fafafa;fill-rule:nonzero;"/>
        <path d="M41.072,20.435C41.747,21.174 42.668,21.538 43.814,21.538C44.96,21.538 45.881,21.174 46.556,20.435C47.241,19.707 47.584,18.722 47.584,17.479C47.584,16.237 47.241,15.252 46.556,14.523C45.881,13.784 44.96,13.42 43.814,13.42C42.668,13.42 41.747,13.784 41.072,14.523C40.397,15.252 40.055,16.237 40.055,17.479C40.055,18.722 40.397,19.707 41.072,20.435ZM42.24,15.509C42.614,15.038 43.139,14.802 43.814,14.802C44.499,14.802 45.024,15.038 45.41,15.509C45.784,15.969 45.977,16.633 45.977,17.479C45.977,18.336 45.784,18.989 45.41,19.461C45.024,19.921 44.499,20.157 43.814,20.157C43.139,20.157 42.614,19.921 42.24,19.461C41.854,18.989 41.672,18.325 41.672,17.479C41.672,16.633 41.854,15.969 42.24,15.509Z" style="fill:#fafafa;fill-rule:nonzero;"/>
        <path d="M52.146,19.182C52.039,19.857 51.696,20.2 51.129,20.2C50.765,20.2 50.486,20.05 50.293,19.761C50.101,19.471 50.004,19.043 50.004,18.497C50.004,17.308 50.379,16.719 51.129,16.719C51.407,16.719 51.643,16.794 51.803,16.955C51.975,17.115 52.082,17.351 52.125,17.651L53.635,17.651C53.581,16.955 53.335,16.419 52.885,16.023C52.446,15.627 51.857,15.434 51.118,15.434C50.283,15.434 49.619,15.702 49.137,16.248C48.655,16.783 48.419,17.533 48.419,18.475C48.419,19.429 48.655,20.168 49.126,20.714C49.597,21.249 50.24,21.517 51.064,21.517C51.793,21.517 52.392,21.313 52.853,20.885C53.324,20.467 53.581,19.9 53.645,19.182L52.146,19.182Z" style="fill:#fafafa;fill-rule:nonzero;"/>
        <path d="M55.895,17.886C55.927,17.501 56.034,17.212 56.227,17.008C56.409,16.805 56.676,16.708 57.008,16.708C57.372,16.708 57.64,16.805 57.833,17.008C58.015,17.201 58.122,17.501 58.133,17.886L55.895,17.886ZM58.111,19.6C58.015,19.814 57.887,19.975 57.715,20.082C57.544,20.178 57.33,20.232 57.073,20.232C56.334,20.232 55.937,19.782 55.895,18.882L59.696,18.882C59.696,18.829 59.707,18.786 59.707,18.732L59.707,18.486C59.707,17.512 59.472,16.762 59,16.226C58.518,15.702 57.844,15.434 56.976,15.434C56.152,15.434 55.509,15.702 55.038,16.237C54.556,16.783 54.32,17.512 54.32,18.443C54.32,19.386 54.566,20.135 55.048,20.692C55.52,21.239 56.173,21.517 56.998,21.517C57.672,21.517 58.24,21.346 58.7,21.014C59.172,20.671 59.482,20.2 59.632,19.6L58.111,19.6Z" style="fill:#fafafa;fill-rule:nonzero;"/>
        <path d="M63.948,19.064C63.948,19.268 63.916,19.439 63.852,19.6C63.798,19.761 63.702,19.9 63.595,20.018C63.477,20.125 63.338,20.21 63.177,20.275C63.017,20.328 62.824,20.36 62.62,20.36C62.395,20.36 62.213,20.296 62.074,20.178C61.935,20.05 61.871,19.889 61.871,19.675C61.871,19.579 61.881,19.482 61.903,19.407C61.935,19.332 61.967,19.257 62.031,19.204C62.085,19.139 62.16,19.086 62.256,19.043C62.342,18.989 62.46,18.947 62.588,18.914C62.599,18.914 62.77,18.872 63.091,18.807C63.413,18.732 63.691,18.647 63.948,18.529L63.948,19.064ZM64.141,21.324L65.726,21.324L65.726,21.067C65.608,21.014 65.523,20.917 65.48,20.799C65.426,20.692 65.405,20.51 65.405,20.275L65.405,17.04C65.405,16.515 65.191,16.119 64.773,15.851C64.355,15.573 63.745,15.434 62.942,15.434C62.213,15.434 61.646,15.605 61.239,15.937C60.821,16.269 60.618,16.719 60.618,17.308L60.618,17.415L62.042,17.415L62.042,17.329C62.042,17.094 62.128,16.922 62.288,16.805C62.449,16.687 62.685,16.623 62.995,16.623C63.327,16.623 63.563,16.676 63.713,16.773C63.852,16.869 63.927,17.04 63.927,17.265C63.927,17.554 63.606,17.747 62.952,17.822C62.824,17.844 62.717,17.854 62.61,17.865C62.513,17.886 62.417,17.897 62.342,17.908C61.646,18.015 61.153,18.208 60.864,18.486C60.564,18.775 60.414,19.182 60.414,19.718C60.414,20.296 60.564,20.746 60.864,21.056C61.153,21.367 61.581,21.528 62.138,21.528C62.545,21.528 62.909,21.453 63.22,21.292C63.531,21.142 63.777,20.917 63.97,20.617C63.98,20.896 64.034,21.131 64.141,21.324Z" style="fill:#fafafa;fill-rule:nonzero;"/>
        <path d="M68.254,21.324L68.254,17.951C68.254,17.769 68.286,17.597 68.339,17.447C68.393,17.308 68.468,17.18 68.564,17.072C68.671,16.976 68.789,16.89 68.939,16.837C69.078,16.783 69.239,16.751 69.421,16.751C69.732,16.751 69.956,16.837 70.096,17.019C70.235,17.19 70.299,17.479 70.299,17.886L70.299,21.324L71.82,21.324L71.82,17.447C71.82,16.141 71.199,15.487 69.946,15.487C69.582,15.487 69.26,15.562 68.971,15.691C68.682,15.83 68.436,16.044 68.221,16.312L68.221,15.637L66.733,15.637L66.733,21.324L68.254,21.324Z" style="fill:#fafafa;fill-rule:nonzero;"/>
        <path d="M73.609,20.703C74.123,21.249 74.829,21.517 75.718,21.517C76.618,21.517 77.314,21.249 77.828,20.703C78.342,20.168 78.599,19.429 78.599,18.475C78.599,17.522 78.342,16.783 77.828,16.248C77.314,15.702 76.618,15.434 75.718,15.434C74.829,15.434 74.123,15.702 73.609,16.248C73.094,16.783 72.837,17.533 72.837,18.475C72.837,19.429 73.094,20.168 73.609,20.703ZM74.722,17.169C74.958,16.869 75.29,16.719 75.718,16.719C76.147,16.719 76.479,16.869 76.704,17.169C76.939,17.479 77.046,17.908 77.046,18.475C77.046,19.043 76.929,19.482 76.704,19.782C76.468,20.093 76.147,20.243 75.718,20.243C75.29,20.243 74.958,20.093 74.722,19.782C74.497,19.482 74.38,19.043 74.38,18.475C74.38,17.908 74.497,17.479 74.722,17.169Z" style="fill:#fafafa;fill-rule:nonzero;"/>
        <path d="M79.51,21.87C79.542,22.438 79.777,22.877 80.216,23.177C80.645,23.488 81.245,23.648 82.005,23.648C82.466,23.648 82.872,23.595 83.215,23.509C83.569,23.413 83.869,23.284 84.093,23.102C84.361,22.877 84.554,22.62 84.661,22.31C84.779,21.999 84.832,21.538 84.832,20.949L84.832,15.637L83.387,15.637L83.387,16.323C83.215,16.023 83.001,15.798 82.733,15.648C82.466,15.509 82.134,15.434 81.748,15.434C81.009,15.434 80.42,15.712 79.992,16.248C79.552,16.783 79.338,17.522 79.338,18.443C79.338,19.311 79.563,20.018 80.002,20.542C80.452,21.067 81.041,21.324 81.769,21.324C82.155,21.324 82.476,21.26 82.733,21.131C82.99,20.992 83.194,20.799 83.354,20.521L83.354,21.024C83.354,21.571 83.258,21.935 83.076,22.138C82.883,22.342 82.551,22.438 82.08,22.438C81.577,22.438 81.266,22.245 81.17,21.87L79.51,21.87ZM81.202,17.169C81.405,16.88 81.716,16.74 82.101,16.74C82.498,16.74 82.808,16.88 83.033,17.158C83.247,17.447 83.354,17.844 83.354,18.368C83.354,18.925 83.247,19.343 83.044,19.621C82.83,19.911 82.519,20.05 82.123,20.05C81.727,20.05 81.416,19.911 81.202,19.621C80.988,19.343 80.88,18.925 80.88,18.39C80.88,17.865 80.988,17.458 81.202,17.169Z" style="fill:#fafafa;fill-rule:nonzero;"/>
        <path d="M87.688,21.324L87.688,18.315C87.688,17.458 88.105,17.03 88.941,17.03L89.444,17.03L89.444,15.487C89.423,15.487 89.391,15.487 89.358,15.477L89.219,15.477C88.855,15.477 88.544,15.573 88.277,15.755C88.009,15.937 87.773,16.226 87.581,16.612L87.581,15.637L86.167,15.637L86.167,21.324L87.688,21.324Z" style="fill:#fafafa;fill-rule:nonzero;"/>
        <path d="M93.514,19.064C93.514,19.268 93.482,19.439 93.417,19.6C93.364,19.761 93.268,19.9 93.16,20.018C93.043,20.125 92.903,20.21 92.743,20.275C92.582,20.328 92.389,20.36 92.186,20.36C91.961,20.36 91.779,20.296 91.64,20.178C91.5,20.05 91.436,19.889 91.436,19.675C91.436,19.579 91.447,19.482 91.468,19.407C91.5,19.332 91.533,19.257 91.597,19.204C91.65,19.139 91.725,19.086 91.822,19.043C91.907,18.989 92.025,18.947 92.154,18.914C92.164,18.914 92.336,18.872 92.657,18.807C92.978,18.732 93.257,18.647 93.514,18.529L93.514,19.064ZM93.707,21.324L95.292,21.324L95.292,21.067C95.174,21.014 95.088,20.917 95.045,20.799C94.992,20.692 94.97,20.51 94.97,20.275L94.97,17.04C94.97,16.515 94.756,16.119 94.338,15.851C93.921,15.573 93.31,15.434 92.507,15.434C91.779,15.434 91.211,15.605 90.804,15.937C90.387,16.269 90.183,16.719 90.183,17.308L90.183,17.415L91.607,17.415L91.607,17.329C91.607,17.094 91.693,16.922 91.854,16.805C92.014,16.687 92.25,16.623 92.561,16.623C92.893,16.623 93.128,16.676 93.278,16.773C93.417,16.869 93.492,17.04 93.492,17.265C93.492,17.554 93.171,17.747 92.518,17.822C92.389,17.844 92.282,17.854 92.175,17.865C92.079,17.886 91.982,17.897 91.907,17.908C91.211,18.015 90.719,18.208 90.429,18.486C90.13,18.775 89.98,19.182 89.98,19.718C89.98,20.296 90.13,20.746 90.429,21.056C90.719,21.367 91.147,21.528 91.704,21.528C92.111,21.528 92.475,21.453 92.786,21.292C93.096,21.142 93.342,20.917 93.535,20.617C93.546,20.896 93.6,21.131 93.707,21.324Z" style="fill:#fafafa;fill-rule:nonzero;"/>
        <path d="M97.808,23.605L97.808,20.617C98.001,20.917 98.237,21.142 98.515,21.292C98.794,21.442 99.126,21.517 99.49,21.517C100.175,21.517 100.732,21.239 101.171,20.671C101.61,20.103 101.825,19.364 101.825,18.454C101.825,17.554 101.61,16.826 101.171,16.28C100.732,15.723 100.165,15.445 99.468,15.445C99.104,15.445 98.783,15.519 98.515,15.68C98.248,15.83 98.001,16.076 97.776,16.408L97.776,15.637L96.331,15.637L96.331,23.605L97.808,23.605ZM99.983,19.75C99.768,20.05 99.468,20.2 99.083,20.2C98.676,20.2 98.355,20.05 98.14,19.761C97.916,19.471 97.808,19.054 97.808,18.518C97.808,17.94 97.916,17.501 98.119,17.201C98.333,16.901 98.644,16.751 99.051,16.751C99.458,16.751 99.779,16.901 99.993,17.201C100.207,17.501 100.315,17.94 100.315,18.518C100.315,19.043 100.207,19.45 99.983,19.75Z" style="fill:#fafafa;fill-rule:nonzero;"/>
        <path d="M104.406,21.324L104.406,17.951C104.406,17.769 104.438,17.597 104.491,17.447C104.545,17.308 104.62,17.18 104.716,17.072C104.823,16.976 104.941,16.89 105.091,16.837C105.23,16.783 105.391,16.751 105.573,16.751C105.905,16.751 106.141,16.848 106.269,17.03C106.398,17.201 106.462,17.64 106.462,18.347L106.462,21.324L107.972,21.324L107.972,17.64L107.972,17.533C107.972,17.126 107.951,16.837 107.897,16.644C107.854,16.451 107.769,16.291 107.661,16.151C107.49,15.937 107.276,15.777 107.008,15.659C106.74,15.541 106.43,15.487 106.098,15.487C105.38,15.487 104.823,15.744 104.406,16.269L104.406,13.624L102.896,13.624L102.896,21.324L104.406,21.324Z" style="fill:#fafafa;fill-rule:nonzero;"/>
        <path d="M109.531,23.605C109.649,23.616 109.767,23.627 109.874,23.638C109.981,23.638 110.078,23.648 110.174,23.648C110.699,23.648 111.084,23.552 111.352,23.37C111.62,23.188 111.834,22.845 112.005,22.342L114.34,15.637L112.744,15.637L111.577,19.739L110.377,15.637L108.707,15.637L110.752,21.388C110.763,21.41 110.774,21.442 110.774,21.474C110.784,21.506 110.784,21.528 110.784,21.549C110.784,22.117 110.485,22.395 109.885,22.395L109.681,22.395C109.628,22.384 109.585,22.384 109.531,22.374L109.531,23.605Z" style="fill:#fafafa;fill-rule:nonzero;"/>
        <path d="M45.538,29.336C45.452,29.796 45.249,30.15 44.949,30.396C44.639,30.642 44.242,30.76 43.76,30.76C43.096,30.76 42.582,30.535 42.218,30.075C41.865,29.625 41.683,28.982 41.683,28.136C41.683,27.269 41.865,26.605 42.218,26.165C42.582,25.716 43.118,25.491 43.814,25.491C44.307,25.491 44.703,25.609 44.992,25.833C45.281,26.058 45.452,26.39 45.517,26.829L47.08,26.829C47.027,25.951 46.706,25.277 46.138,24.805C45.57,24.323 44.799,24.077 43.814,24.077C42.604,24.077 41.683,24.43 41.029,25.127C40.387,25.823 40.065,26.829 40.065,28.136C40.065,29.421 40.376,30.417 41.008,31.124C41.64,31.842 42.529,32.195 43.675,32.195C44.671,32.195 45.474,31.938 46.074,31.424C46.695,30.899 47.038,30.203 47.091,29.336L45.538,29.336Z" style="fill:#fafafa;fill-rule:nonzero;"/>
        <path d="M49.511,28.543C49.544,28.157 49.651,27.868 49.843,27.665C50.026,27.461 50.293,27.365 50.625,27.365C50.989,27.365 51.257,27.461 51.45,27.665C51.632,27.858 51.739,28.157 51.75,28.543L49.511,28.543ZM51.728,30.257C51.632,30.471 51.503,30.631 51.332,30.739C51.161,30.835 50.947,30.888 50.69,30.888C49.951,30.888 49.554,30.439 49.511,29.539L53.313,29.539C53.313,29.486 53.324,29.443 53.324,29.389L53.324,29.143C53.324,28.168 53.089,27.419 52.617,26.883C52.135,26.358 51.461,26.091 50.593,26.091C49.769,26.091 49.126,26.358 48.655,26.894C48.173,27.44 47.937,28.168 47.937,29.1C47.937,30.042 48.183,30.792 48.665,31.349C49.137,31.895 49.79,32.174 50.615,32.174C51.289,32.174 51.857,32.002 52.317,31.67C52.789,31.328 53.099,30.856 53.249,30.257L51.728,30.257Z" style="fill:#fafafa;fill-rule:nonzero;"/>
        <path d="M55.852,31.981L55.852,28.607C55.852,28.425 55.884,28.254 55.937,28.104C55.991,27.965 56.066,27.836 56.162,27.729C56.269,27.633 56.387,27.547 56.537,27.493C56.676,27.44 56.837,27.408 57.019,27.408C57.33,27.408 57.555,27.493 57.694,27.676C57.833,27.847 57.897,28.136 57.897,28.543L57.897,31.981L59.418,31.981L59.418,28.104C59.418,26.797 58.797,26.144 57.544,26.144C57.18,26.144 56.858,26.219 56.569,26.348C56.28,26.487 56.034,26.701 55.82,26.969L55.82,26.294L54.331,26.294L54.331,31.981L55.852,31.981Z" style="fill:#fafafa;fill-rule:nonzero;"/>
        <path d="M63.252,30.878L62.877,30.878C62.674,30.878 62.535,30.856 62.47,30.814C62.406,30.76 62.374,30.664 62.374,30.514L62.374,27.365L63.252,27.365L63.252,26.294L62.374,26.294L62.374,24.741L60.864,24.741L60.864,26.294L60.114,26.294L60.114,27.365L60.864,27.365L60.864,30.439C60.864,31.081 60.971,31.51 61.185,31.735C61.399,31.949 61.796,32.056 62.385,32.056C62.427,32.056 62.556,32.045 62.749,32.034L63.252,32.024L63.252,30.878Z" style="fill:#fafafa;fill-rule:nonzero;"/>
        <path d="M65.651,31.981L65.651,28.971C65.651,28.115 66.069,27.686 66.904,27.686L67.408,27.686L67.408,26.144C67.386,26.144 67.354,26.144 67.322,26.133L67.183,26.133C66.819,26.133 66.508,26.23 66.24,26.412C65.972,26.594 65.737,26.883 65.544,27.269L65.544,26.294L64.13,26.294L64.13,31.981L65.651,31.981Z" style="fill:#fafafa;fill-rule:nonzero;"/>
        <path d="M69.528,28.543C69.56,28.157 69.667,27.868 69.86,27.665C70.042,27.461 70.31,27.365 70.642,27.365C71.006,27.365 71.274,27.461 71.467,27.665C71.649,27.858 71.756,28.157 71.766,28.543L69.528,28.543ZM71.745,30.257C71.649,30.471 71.52,30.631 71.349,30.739C71.177,30.835 70.963,30.888 70.706,30.888C69.967,30.888 69.571,30.439 69.528,29.539L73.33,29.539C73.33,29.486 73.341,29.443 73.341,29.389L73.341,29.143C73.341,28.168 73.105,27.419 72.634,26.883C72.152,26.358 71.477,26.091 70.61,26.091C69.785,26.091 69.143,26.358 68.671,26.894C68.189,27.44 67.954,28.168 67.954,29.1C67.954,30.042 68.2,30.792 68.682,31.349C69.153,31.895 69.807,32.174 70.631,32.174C71.306,32.174 71.874,32.002 72.334,31.67C72.805,31.328 73.116,30.856 73.266,30.257L71.745,30.257Z" style="fill:#fafafa;fill-rule:nonzero;"/>
        <clipPath id="_clip1">
            <rect x="-6.607" y="1.306" width="47.229" height="33.37"/>
        </clipPath>
        <g clip-path="url(#_clip1)">
            <clipPath id="_clip2">
                <rect x="-6.607" y="1.306" width="47.229" height="33.37"/>
            </clipPath>
            <g clip-path="url(#_clip2)">
                <clipPath id="_clip3">
                    <rect x="-6.607" y="1.306" width="47.229" height="33.37"/>
                </clipPath>
                <g clip-path="url(#_clip3)">
                    <path d="M33.693,17.991C33.693,27.206 26.223,34.676 17.008,34.676C7.792,34.676 0.322,27.206 0.322,17.991C0.322,8.776 7.792,1.306 17.008,1.306C26.223,1.306 33.693,8.776 33.693,17.991Z" style="fill:url(#_Linear4);"/>
                </g>
            </g>
        </g>
        <path d="M28.244,13.007L27.547,14.465C27.523,14.351 27.494,14.22 27.466,14.085C27.389,13.726 27.31,13.359 27.263,13.157C27.432,13.109 27.598,13.058 27.764,13.007L28.108,12.904C28.187,12.881 28.266,12.859 28.345,12.835C28.821,12.68 29.247,12.531 29.646,12.381C29.684,12.367 29.72,12.352 29.757,12.337L29.798,12.32C30.172,12.178 30.534,12.029 30.872,11.88C30.957,11.843 31.039,11.804 31.121,11.765L31.47,11.603C31.564,11.56 31.659,11.516 31.751,11.472C32.53,13.223 32.954,14.914 33.077,16.761L28.244,13.007ZM32.764,20.146C32.368,24.04 29.923,28.224 26.535,30.805C23.841,32.856 20.704,33.895 17.212,33.895C16.705,33.895 16.168,33.866 15.517,33.801C15.479,33.799 15.441,33.797 15.399,33.791C13.366,33.578 11.898,33.081 11.189,32.797C11.174,32.79 11.152,32.78 11.144,32.78L11.143,32.78C11.005,32.722 10.871,32.665 10.757,32.616C10.653,32.567 10.556,32.521 10.468,32.478L10.466,32.426L10.375,32.426C10.135,32.299 9.908,32.171 9.688,32.045C9.102,31.709 8.516,31.346 7.984,30.992L10.577,29.56L12.736,30.62L16.841,27.284L20.43,28.143L24.796,18.352L26.306,19.137L28.61,14.73C28.973,15.006 30.227,15.968 32.861,17.998C32.858,19.114 32.765,20.137 32.764,20.146ZM5.638,20.701C3.812,21.026 2.646,20.053 2.261,19.66C1.847,19.595 1.497,19.569 1.012,19.249C1.012,19.249 0.956,18.94 0.956,18.716C0.956,18.493 0.952,18.16 0.952,18.16C1.517,18.609 2.239,18.69 2.549,18.723L2.754,18.743L2.879,18.9C2.92,18.951 3.912,20.129 5.689,19.701L5.971,19.635L6.163,19.851C7.336,21.163 9.347,20.614 9.367,20.61L9.609,20.539L9.804,20.697C9.864,20.746 11.31,21.867 13,21.058L13.256,20.934L13.487,21.1C15.072,22.224 16.942,21.348 16.96,21.338L17.178,21.233L17.396,21.348C17.468,21.382 19.228,22.28 20.754,21.074L20.941,20.927L21.173,20.985C21.531,21.073 21.964,21.129 22.08,21.1C22.08,21.1 22.405,21.078 22.604,20.969L22.138,22.019C21.922,22.071 21.594,22.071 21.166,21.978C20.414,22.505 19.632,22.673 18.954,22.673C18.15,22.673 17.488,22.442 17.161,22.304C16.552,22.537 14.802,23.048 13.16,22.043C11.418,22.74 9.924,21.942 9.396,21.594C8.752,21.726 6.944,21.942 5.638,20.701ZM2.266,11.473C2.37,11.522 2.476,11.57 2.582,11.619L2.86,11.748C2.954,11.793 3.048,11.838 3.148,11.882C3.485,12.028 3.836,12.172 4.19,12.308L4.375,12.384C4.78,12.535 5.216,12.686 5.673,12.832C5.75,12.857 5.83,12.88 5.91,12.904L6.264,13.011C6.426,13.061 6.588,13.111 6.753,13.157C6.711,13.317 6.672,13.477 6.632,13.638L6.522,14.078C6.494,14.187 6.467,14.295 6.441,14.404C6.321,14.914 6.21,15.439 6.11,15.967L6.08,16.144C5.977,16.701 5.901,17.159 5.84,17.584C5.823,17.693 5.809,17.802 5.796,17.911L5.735,18.378C4.225,19.014 3.212,17.506 3.169,17.441L3.117,17.363L3.029,17.392C2.982,17.407 1.883,17.752 0.952,16.78C1.091,14.913 1.533,13.129 2.266,11.473ZM5.817,6.397C5.82,6.398 5.823,6.399 5.825,6.4C5.847,6.407 5.868,6.414 5.888,6.422C6.409,6.622 6.853,6.777 7.277,6.909C7.315,6.924 7.351,6.935 7.392,6.948C7.866,7.096 8.372,7.236 8.935,7.373L8.897,7.428L8.936,7.428C8.894,7.513 8.852,7.599 8.81,7.685L8.672,7.966C8.616,8.076 8.56,8.185 8.507,8.3C8.364,8.602 8.216,8.943 8.052,9.339C8.032,9.386 8.012,9.432 7.991,9.478C7.968,9.53 7.944,9.583 7.921,9.639C7.743,10.078 7.57,10.546 7.39,11.069C7.363,11.149 7.338,11.231 7.312,11.313L7.26,11.48C7.171,11.749 7.083,12.017 7,12.293C6.783,12.233 6.569,12.17 6.355,12.105L6.21,12.063C6.123,12.037 6.036,12.012 5.951,11.984C5.509,11.844 5.085,11.697 4.689,11.547C4.664,11.539 4.641,11.528 4.619,11.519L4.566,11.497C4.184,11.352 3.837,11.21 3.504,11.063C3.428,11.029 3.354,10.994 3.281,10.959L3.121,10.885C2.963,10.811 2.807,10.736 2.654,10.661C3.461,9.079 4.525,7.646 5.817,6.397ZM13.02,2.372C12.989,2.395 12.957,2.418 12.926,2.441C12.804,2.529 12.684,2.625 12.568,2.721L12.53,2.752C12.483,2.788 12.437,2.824 12.393,2.863C12.244,2.99 12.098,3.123 11.945,3.269C11.92,3.291 11.896,3.312 11.873,3.335C11.715,3.489 11.547,3.662 11.363,3.862L11.304,3.93C11.284,3.954 11.264,3.978 11.241,4.003L11.161,4.095C11.064,4.206 10.967,4.319 10.871,4.437L10.835,4.483C10.79,4.54 10.745,4.597 10.702,4.654C10.599,4.785 10.495,4.921 10.393,5.06C10.333,5.143 10.273,5.228 10.212,5.314C10.117,5.452 10.021,5.592 9.927,5.736C9.867,5.826 9.807,5.917 9.748,6.011C9.655,6.16 9.562,6.313 9.46,6.488C9.442,6.516 9.425,6.544 9.408,6.572C9.379,6.564 9.35,6.558 9.324,6.552C8.866,6.441 8.425,6.323 8.014,6.202L7.819,6.146C7.431,6.029 7.019,5.89 6.563,5.724C8.43,4.13 10.648,2.98 13.02,2.372ZM13.678,2.998C13.888,2.854 14.102,2.723 14.314,2.607C14.354,2.584 14.394,2.564 14.436,2.543L14.455,2.532C14.692,2.41 14.904,2.314 15.125,2.228C15.27,2.173 15.423,2.123 15.591,2.078C15.577,2.103 15.561,2.127 15.547,2.153L15.522,2.197C15.507,2.223 15.492,2.248 15.482,2.269C15.407,2.405 15.335,2.551 15.254,2.733C15.183,2.891 15.116,3.063 15.047,3.244L15.03,3.29C15.013,3.338 14.994,3.388 14.979,3.435C14.932,3.565 14.886,3.699 14.838,3.842L14.767,4.072C14.721,4.222 14.674,4.38 14.629,4.55L14.569,4.757C14.507,4.988 14.446,5.231 14.386,5.486C14.37,5.552 14.354,5.626 14.341,5.692C14.295,5.89 14.25,6.096 14.206,6.305C14.191,6.375 14.177,6.446 14.162,6.517L14.142,6.618C14.104,6.815 14.065,7.016 14.026,7.22L14.011,7.299L13.931,7.291C13.279,7.234 12.712,7.169 12.188,7.093C12.149,7.091 12.113,7.087 12.077,7.083C11.517,7 10.951,6.9 10.341,6.775C10.336,6.774 10.332,6.773 10.328,6.773C10.499,6.488 10.668,6.223 10.83,5.986L10.933,5.84C11.111,5.586 11.283,5.355 11.459,5.133L11.479,5.107C11.502,5.077 11.524,5.048 11.547,5.019C11.728,4.795 11.921,4.573 12.137,4.342L12.161,4.318C12.199,4.278 12.237,4.237 12.276,4.198C12.482,3.984 12.688,3.787 12.883,3.615L12.967,3.547C13.149,3.39 13.345,3.236 13.554,3.089C13.594,3.058 13.636,3.027 13.678,2.998ZM14.4,2.424L14.399,2.424L14.4,2.424ZM15.666,4.195C15.695,4.098 15.727,4.004 15.762,3.899L15.836,3.688C15.863,3.615 15.888,3.545 15.917,3.472C15.925,3.448 15.934,3.425 15.944,3.403L15.961,3.36C15.994,3.274 16.029,3.188 16.071,3.096C16.077,3.076 16.085,3.059 16.094,3.042L16.134,2.953C16.16,2.895 16.186,2.839 16.218,2.775C16.226,2.76 16.235,2.746 16.241,2.733C16.279,2.659 16.318,2.588 16.355,2.523L16.373,2.491C16.411,2.428 16.45,2.366 16.487,2.312L16.499,2.297C16.753,1.931 16.929,1.875 17.01,1.874C17.03,1.874 17.056,1.879 17.086,1.889C17.098,1.895 17.111,1.901 17.14,1.914C17.15,1.918 17.16,1.922 17.171,1.929L17.217,1.961C17.232,1.974 17.247,1.987 17.265,2.002L17.309,2.041C17.321,2.055 17.334,2.069 17.338,2.071C17.349,2.086 17.363,2.098 17.376,2.111C17.384,2.12 17.393,2.129 17.406,2.144C17.417,2.158 17.43,2.174 17.441,2.191L17.478,2.24C17.499,2.266 17.516,2.288 17.535,2.313L17.567,2.365C17.581,2.389 17.596,2.414 17.607,2.43L17.634,2.474C17.645,2.491 17.657,2.509 17.67,2.535C17.696,2.579 17.726,2.633 17.763,2.703C17.777,2.733 17.793,2.762 17.811,2.802C17.833,2.845 17.855,2.892 17.877,2.939L17.958,3.119C17.975,3.156 17.991,3.195 18.007,3.235C18.02,3.268 18.034,3.301 18.045,3.327C18.064,3.379 18.085,3.431 18.113,3.502C18.14,3.575 18.168,3.651 18.196,3.73C18.217,3.788 18.237,3.845 18.258,3.907C18.289,3.995 18.32,4.088 18.348,4.18C18.368,4.247 18.389,4.313 18.41,4.38L18.501,4.695C18.522,4.766 18.543,4.838 18.564,4.914L18.658,5.264C18.676,5.344 18.695,5.427 18.717,5.51C18.734,5.576 18.749,5.644 18.765,5.713L18.805,5.878C18.82,5.95 18.836,6.021 18.853,6.095L18.868,6.16C18.884,6.229 18.899,6.299 18.914,6.369L18.955,6.561C18.97,6.64 18.986,6.718 19.002,6.799L19.027,6.924C19.051,7.048 19.076,7.176 19.098,7.311C19.102,7.328 19.106,7.344 19.109,7.361C19.087,7.363 19.065,7.364 19.044,7.366C18.301,7.408 17.639,7.429 16.997,7.429C16.378,7.429 15.717,7.408 14.976,7.366C14.953,7.364 14.931,7.363 14.908,7.361C14.91,7.343 14.913,7.325 14.916,7.308L15,6.875C15.018,6.786 15.036,6.701 15.055,6.616L15.066,6.562C15.09,6.433 15.118,6.308 15.151,6.158C15.165,6.09 15.181,6.025 15.196,5.96L15.214,5.879C15.24,5.762 15.268,5.644 15.303,5.505C15.315,5.454 15.327,5.404 15.34,5.355L15.394,5.142C15.414,5.064 15.435,4.986 15.455,4.912L15.514,4.701C15.545,4.591 15.577,4.481 15.614,4.361C15.63,4.306 15.646,4.253 15.666,4.195ZM19.571,2.537L19.6,2.552C19.634,2.569 19.667,2.586 19.702,2.606C19.943,2.739 20.153,2.869 20.343,3C20.382,3.027 20.423,3.056 20.463,3.087C20.664,3.228 20.859,3.38 21.059,3.553L21.127,3.609C21.313,3.772 21.51,3.96 21.748,4.203C21.775,4.228 21.799,4.255 21.824,4.281L21.88,4.341C22.097,4.573 22.29,4.795 22.473,5.022C22.497,5.051 22.52,5.082 22.557,5.132C22.733,5.353 22.906,5.585 23.084,5.839L23.133,5.907C23.151,5.933 23.169,5.958 23.187,5.985C23.338,6.206 23.496,6.454 23.692,6.772L23.675,6.776C23.062,6.902 22.496,7.001 21.945,7.081C21.905,7.087 21.864,7.091 21.815,7.094C21.303,7.169 20.738,7.234 20.088,7.291L20.006,7.299L19.99,7.222C19.952,7.016 19.916,6.815 19.874,6.617L19.753,6.033C19.729,5.922 19.705,5.813 19.681,5.696C19.661,5.626 19.647,5.553 19.632,5.482C19.571,5.231 19.511,4.992 19.449,4.76L19.38,4.518C19.339,4.369 19.298,4.226 19.255,4.087L19.171,3.82C19.144,3.737 19.117,3.657 19.09,3.579L19.02,3.38C19.001,3.326 18.982,3.272 18.962,3.223C18.928,3.129 18.89,3.039 18.852,2.949L18.828,2.894C18.78,2.776 18.731,2.663 18.679,2.56C18.637,2.469 18.592,2.381 18.55,2.299C18.521,2.243 18.491,2.191 18.461,2.14L18.435,2.093C18.432,2.09 18.429,2.085 18.427,2.08C18.811,2.189 19.195,2.341 19.571,2.537ZM27.456,5.723C26.991,5.894 26.59,6.028 26.195,6.146C26.163,6.156 26.131,6.165 26.098,6.174L26.004,6.201C25.578,6.327 25.137,6.445 24.696,6.551C24.667,6.558 24.638,6.565 24.61,6.571C24.604,6.563 24.599,6.555 24.594,6.546L24.545,6.466C24.456,6.313 24.364,6.164 24.259,5.999C24.202,5.908 24.146,5.818 24.088,5.729C23.996,5.59 23.902,5.454 23.81,5.322L23.778,5.275C23.725,5.2 23.673,5.126 23.622,5.055C23.539,4.94 23.452,4.828 23.368,4.719L23.327,4.667C23.287,4.614 23.246,4.562 23.205,4.509L23.142,4.429C23.039,4.305 22.935,4.185 22.831,4.066L22.791,4.02C22.765,3.992 22.74,3.962 22.716,3.933C22.694,3.908 22.674,3.882 22.651,3.858C22.475,3.666 22.31,3.495 22.148,3.338C22.131,3.321 22.113,3.304 22.096,3.288L22.052,3.247C21.91,3.115 21.769,2.985 21.627,2.864C21.597,2.839 21.567,2.815 21.537,2.791C21.508,2.767 21.478,2.743 21.447,2.716C21.33,2.623 21.213,2.529 21.095,2.442C21.063,2.419 21.032,2.396 20.999,2.373C23.37,2.979 25.587,4.128 27.456,5.723ZM21.438,14.246L21.831,14.203C21.946,14.191 22.06,14.179 22.174,14.165C22.749,14.092 23.254,14.02 23.728,13.94L23.802,13.925C24.268,13.846 24.746,13.755 25.223,13.655C25.338,13.631 25.448,13.605 25.56,13.578L25.975,13.483C26.117,13.452 26.258,13.42 26.397,13.386C26.454,13.598 26.508,13.811 26.563,14.027L26.59,14.134C26.602,14.181 26.678,14.609 26.739,14.953C26.803,15.314 26.848,15.561 26.867,15.663L25.829,17.685L24.283,16.917L23.205,19.335C22.772,19.741 22.079,20.115 21.179,19.668C21.176,19.589 21.173,19.51 21.171,19.43C21.164,19.244 21.158,19.057 21.153,18.873L21.152,18.836C21.13,18.32 21.105,17.809 21.077,17.301L21.065,17.061C21.036,16.564 21.007,16.073 20.973,15.588C20.965,15.434 20.953,15.285 20.942,15.136L20.881,14.307C21.067,14.289 21.252,14.268 21.438,14.246ZM22.18,7.824M20.254,8.79L20.208,8.489C20.192,8.386 20.177,8.283 20.16,8.182C20.183,8.179 20.206,8.177 20.23,8.175C20.97,8.109 21.582,8.037 22.146,7.952C22.164,7.95 22.183,7.947 22.226,7.941C22.81,7.855 23.419,7.743 24.086,7.601L24.148,7.591C24.15,7.591 24.152,7.59 24.153,7.59C24.269,7.806 24.382,8.03 24.494,8.255L24.574,8.411C24.609,8.48 24.644,8.549 24.679,8.619C24.893,9.073 25.081,9.502 25.255,9.933C25.264,9.954 25.272,9.977 25.28,9.999L25.303,10.06C25.439,10.405 25.616,10.863 25.775,11.339C25.813,11.447 25.848,11.561 25.884,11.674L25.925,11.806C26.002,12.041 26.078,12.279 26.151,12.522C25.938,12.575 25.723,12.625 25.507,12.673L25.381,12.704C25.265,12.732 25.151,12.76 25.032,12.785C24.6,12.876 24.159,12.959 23.681,13.04L23.629,13.05C23.609,13.054 23.589,13.059 23.565,13.063C23.14,13.134 22.659,13.204 22.054,13.282L21.857,13.303C21.772,13.312 21.687,13.321 21.602,13.331C21.338,13.361 21.071,13.388 20.804,13.413C20.779,13.14 20.752,12.875 20.724,12.608L20.71,12.447C20.701,12.339 20.691,12.23 20.679,12.127C20.627,11.615 20.569,11.116 20.511,10.632C20.499,10.536 20.487,10.445 20.473,10.353C20.422,9.96 20.371,9.571 20.316,9.197L20.291,9.034C20.278,8.954 20.266,8.875 20.254,8.79ZM14.107,13.486C14.127,13.247 14.15,13.012 14.174,12.776L14.185,12.652C14.199,12.504 14.212,12.356 14.227,12.213C14.28,11.702 14.336,11.205 14.398,10.72L14.41,10.623C14.465,10.176 14.526,9.74 14.587,9.318C14.602,9.21 14.618,9.107 14.635,9.003L14.67,8.773C14.697,8.597 14.724,8.423 14.752,8.252C14.895,8.26 15.038,8.266 15.181,8.272L15.746,8.299C16.142,8.312 16.539,8.32 16.936,8.32L17.009,8.322L17.08,8.32C17.476,8.32 17.873,8.312 18.273,8.299L18.838,8.272C18.98,8.266 19.122,8.26 19.265,8.252C19.295,8.445 19.327,8.642 19.357,8.842C19.383,8.982 19.403,9.119 19.423,9.261L19.432,9.317C19.493,9.74 19.551,10.178 19.608,10.625L19.613,10.661C19.616,10.68 19.619,10.698 19.621,10.723C19.681,11.205 19.737,11.703 19.792,12.211C19.808,12.39 19.826,12.575 19.845,12.779C19.869,13.014 19.89,13.248 19.911,13.485C19.642,13.505 19.373,13.52 19.105,13.533C19.032,13.536 18.959,13.541 18.886,13.546C18.795,13.551 18.704,13.557 18.612,13.56C17.546,13.603 16.465,13.603 15.399,13.56C15.314,13.557 15.229,13.552 15.143,13.547C15.066,13.542 14.99,13.536 14.913,13.533C14.645,13.52 14.375,13.505 14.107,13.486ZM13.742,19.351C13.748,19.2 13.754,19.048 13.759,18.894C13.782,18.342 13.807,17.793 13.835,17.251L13.844,17.099C13.872,16.613 13.901,16.13 13.933,15.653L13.949,15.46C13.957,15.342 13.967,15.225 13.973,15.109C13.992,14.864 14.01,14.621 14.03,14.38C14.201,14.391 14.371,14.4 14.542,14.408L14.977,14.432C15.112,14.44 15.249,14.448 15.383,14.452C15.798,14.469 16.244,14.478 16.784,14.482L16.862,14.484C16.963,14.486 17.06,14.487 17.157,14.484L17.238,14.482C17.78,14.478 18.226,14.469 18.642,14.452C18.75,14.449 18.86,14.442 18.97,14.435L19.4,14.412C19.596,14.402 19.792,14.392 19.99,14.38C20.008,14.617 20.026,14.856 20.042,15.098C20.058,15.265 20.069,15.429 20.08,15.596L20.084,15.657C20.117,16.141 20.147,16.632 20.175,17.125L20.183,17.254C20.213,17.796 20.237,18.344 20.259,18.901C20.266,19.005 20.269,19.11 20.271,19.215L20.282,19.542C20.285,19.636 20.287,19.731 20.291,19.825C18.76,20.928 17.209,19.815 17.144,19.767L17.069,19.712L16.996,19.77C16.98,19.782 15.38,21.024 13.729,19.768L13.742,19.351ZM13.138,14.307L13.046,15.565C12.973,16.625 12.912,17.728 12.867,18.844C12.86,19.017 12.853,19.194 12.849,19.367L12.839,19.673C11.159,20.728 9.786,19.189 9.727,19.122L9.663,19.048L9.577,19.095C9.56,19.106 7.87,20.019 6.595,18.703C6.606,18.614 6.616,18.527 6.627,18.44L6.646,18.277C6.66,18.182 6.672,18.086 6.684,17.99C6.695,17.908 6.705,17.826 6.716,17.745C6.804,17.162 6.89,16.645 6.98,16.168L7.045,15.856C7.143,15.362 7.226,14.967 7.307,14.615C7.332,14.51 7.359,14.408 7.385,14.306L7.439,14.096C7.498,13.858 7.558,13.621 7.622,13.386C7.759,13.42 7.897,13.45 8.036,13.482L8.457,13.578C8.569,13.605 8.681,13.631 8.795,13.654C9.265,13.754 9.749,13.846 10.236,13.93L10.298,13.939C10.766,14.019 11.273,14.093 11.846,14.165C11.955,14.179 12.066,14.191 12.178,14.202L12.557,14.244C12.75,14.266 12.944,14.288 13.138,14.307ZM12.421,13.331L12.213,13.308C12.13,13.299 12.047,13.291 11.967,13.281C11.431,13.214 10.935,13.142 10.451,13.062C10.433,13.059 10.415,13.055 10.398,13.051L10.352,13.043C9.888,12.964 9.429,12.878 8.986,12.785C8.9,12.766 8.815,12.746 8.73,12.726C8.658,12.709 8.587,12.692 8.514,12.676C8.298,12.627 8.082,12.576 7.868,12.522C7.939,12.283 8.013,12.047 8.089,11.816L8.15,11.625C8.18,11.528 8.211,11.433 8.242,11.339C8.383,10.93 8.536,10.515 8.713,10.072L8.737,10.007C8.745,9.984 8.753,9.96 8.764,9.934C8.934,9.508 9.122,9.079 9.339,8.622C9.378,8.539 9.419,8.46 9.46,8.382L9.521,8.262C9.633,8.034 9.748,7.81 9.865,7.591C9.867,7.591 9.871,7.592 9.874,7.593L9.934,7.604C10.615,7.746 11.222,7.857 11.819,7.945C11.837,7.947 11.854,7.95 11.862,7.95C12.435,8.037 13.047,8.108 13.791,8.175C13.813,8.177 13.836,8.179 13.858,8.182C13.834,8.332 13.811,8.485 13.787,8.637L13.741,8.942C13.728,9.027 13.714,9.111 13.702,9.198C13.648,9.57 13.598,9.95 13.548,10.341C13.535,10.438 13.523,10.531 13.508,10.633C13.454,11.069 13.406,11.516 13.356,11.974L13.293,12.611C13.266,12.878 13.241,13.141 13.215,13.412C12.949,13.386 12.685,13.361 12.421,13.331ZM28.202,6.397C29.491,7.645 30.554,9.079 31.364,10.662C31.213,10.736 31.059,10.808 30.903,10.881L30.788,10.936C30.698,10.979 30.608,11.023 30.513,11.063C30.211,11.197 29.879,11.334 29.468,11.491L29.405,11.518C29.381,11.527 29.357,11.538 29.329,11.548C28.944,11.693 28.532,11.836 28.068,11.984C27.995,12.007 27.921,12.029 27.846,12.051L27.564,12.135C27.384,12.188 27.203,12.241 27.019,12.293C26.958,12.091 26.894,11.894 26.829,11.697L26.767,11.509C26.748,11.449 26.729,11.387 26.71,11.326C26.682,11.236 26.655,11.147 26.625,11.061C26.45,10.551 26.277,10.087 26.096,9.642C26.049,9.522 26,9.41 25.949,9.296C25.783,8.896 25.643,8.579 25.512,8.3C25.455,8.178 25.396,8.062 25.336,7.945L25.186,7.64C25.143,7.553 25.102,7.466 25.058,7.381L25.074,7.377C25.649,7.235 26.156,7.095 26.628,6.949L26.738,6.911C27.183,6.771 27.64,6.611 28.137,6.42C28.157,6.412 28.18,6.404 28.202,6.397ZM34.01,17.579L34.012,17.577L33.983,16.818L33.965,16.651L33.959,16.652C33.803,14.665 33.31,12.751 32.494,10.959L32.206,10.375C31.378,8.725 30.284,7.224 28.956,5.914L28.605,5.553L28.388,5.356L28.387,5.357C25.256,2.535 21.219,0.982 17.009,0.982C12.796,0.982 8.758,2.536 5.629,5.359L5.624,5.357L5.062,5.912C3.761,7.198 2.687,8.66 1.868,10.262L1.853,10.253L1.516,10.958L1.465,11.082L1.468,11.083C0.687,12.841 0.214,14.71 0.061,16.641L0.045,16.633L0.016,17.33L0.009,17.597L0.008,17.632C0.004,17.751 0,17.871 0,17.99C0,22.895 2.123,27.562 5.828,30.798L6.605,31.436C8.538,32.931 10.804,34.007 13.161,34.553L13.921,34.724L14.073,34.743L14.073,34.738C15.072,34.912 16.059,35 17.009,35C17.962,35 18.951,34.912 19.95,34.737L19.95,34.755L20.76,34.585L20.862,34.55C23.153,34.051 25.271,33.07 27.154,31.635C27.16,31.63 27.168,31.625 27.175,31.62L27.166,31.679L28.062,30.911L28.199,30.788C31.896,27.554 34.015,22.893 34.015,17.99C34.015,17.853 34.014,17.715 34.01,17.579Z" style="fill:#fafafa;fill-rule:nonzero;"/>
    </g>
    <defs>
        <linearGradient id="_Linear4" x1="0" y1="0" x2="1" y2="0" gradientUnits="userSpaceOnUse" gradientTransform="matrix(0,33.3704,-33.3704,0,17.0078,1.30549)"><stop offset="0" style="stop-color:rgb(37,139,203);stop-opacity:1"/><stop offset="1" style="stop-color:rgb(5,51,79);stop-opacity:1"/></linearGradient>
    </defs>
</svg>
